<?xml version="1.0" standalone="no"?>
<!DOCTYPE svg PUBLIC "-//W3C//DTD SVG 20010904//EN"
 "http://www.w3.org/TR/2001/REC-SVG-20010904/DTD/svg10.dtd">
<svg version="1.0" xmlns="http://www.w3.org/2000/svg"
 width="42.000000pt" height="50.000000pt" viewBox="0 0 489.000000 251.000000"
 preserveAspectRatio="xMidYMid meet">

<g transform="translate(0.000000,251.000000) scale(0.100000,-0.100000)"
fill="#000000" stroke="none">
<path d="M3960 2070 l0 -180 -65 0 -65 0 0 -120 0 -120 64 0 64 0 4 -452 c4
-385 7 -464 22 -528 31 -134 98 -214 201 -241 42 -12 192 -8 213 5 8 5 12 45
12 131 l0 125 -44 -6 c-71 -10 -95 0 -119 54 -21 45 -22 62 -25 478 l-4 431
24 5 c12 2 56 3 96 3 l72 -1 0 117 0 118 -92 3 -93 3 -3 178 -2 177 -130 0
-130 0 0 -180z"/>
<path d="M692 1888 c-109 -40 -176 -127 -201 -263 -15 -79 -15 -841 0 -921 16
-86 61 -174 109 -213 69 -55 103 -65 225 -66 94 0 117 4 160 23 128 59 174
167 175 405 l0 117 -130 0 -130 0 0 -134 c0 -120 -2 -136 -21 -160 -29 -37
-89 -37 -119 1 -20 26 -21 32 -18 496 l3 469 24 19 c30 24 72 24 102 0 23 -18
24 -27 27 -145 l4 -126 129 0 129 0 0 93 c0 298 -86 414 -315 424 -75 3 -100
0 -153 -19z"/>
<path d="M1825 1892 c-72 -25 -111 -56 -145 -115 l-30 -52 0 83 0 82 -130 0
-130 0 0 -725 0 -725 130 0 130 0 0 531 c0 517 1 532 20 568 12 20 38 47 58
61 32 21 48 25 114 25 l78 0 0 143 c0 163 4 158 -95 124z"/>
<path d="M3245 1893 c-142 -51 -216 -175 -216 -363 0 -162 45 -244 243 -447
155 -159 183 -209 176 -307 -7 -80 -28 -121 -71 -135 -78 -26 -136 38 -152
167 l-7 52 -119 0 -119 0 0 -37 c0 -57 26 -166 50 -213 32 -64 96 -126 159
-157 50 -25 67 -28 156 -28 81 0 109 4 146 21 134 62 210 218 196 402 -5 62
-13 91 -47 160 -35 71 -63 106 -179 227 -76 79 -149 166 -165 195 -26 48 -28
59 -24 127 6 95 27 127 85 131 54 4 78 -26 88 -108 l7 -60 120 0 121 0 -6 68
c-14 150 -62 236 -159 286 -75 38 -206 46 -283 19z"/>
<path d="M2090 1268 c0 -406 4 -637 11 -663 16 -63 36 -100 71 -135 79 -78
156 -67 268 37 32 29 60 53 64 53 3 0 6 -27 6 -60 l0 -60 130 0 130 0 0 725 0
725 -130 0 -130 0 0 -576 0 -576 -34 -34 c-37 -37 -69 -43 -104 -18 l-22 15 0
595 0 594 -130 0 -130 0 0 -622z"/>
</g>
</svg>
